HIERARCHY
ROOT Hips
{
	OFFSET 0.000000 0.000000 0.000000 
	CHANNELS 6 Xposition Yposition Zposition Yrotation Zrotation Xrotation 
	JOINT Lumbar
	{
		OFFSET 0.000000 0.000000 0.000000 
		CHANNELS 3 Zrotation Xrotation Yrotation
		JOINT Neck
		{
			OFFSET 0.000000 0.445665 0.000000 
			CHANNELS 3 Zrotation Xrotation Yrotation
			End Site
			{
				OFFSET 0.000000 0.227535 0.000000 
			}
		}
		JOINT RightShoulder
		{
			OFFSET 0.019635 0.377685 0.194865 
			CHANNELS 3 Zrotation Xrotation Yrotation
			JOINT RightElbow
			{
				OFFSET 0.000000 -0.243375 0.000000 
				CHANNELS 2 Zrotation Yrotation
				JOINT RightWrist
				{
					OFFSET 0.000000 -0.264825 0.000000 
					CHANNELS 2 Zrotation Xrotation
					End Site
					{
						OFFSET 0.006600 -0.176220 0.000990 
					}
				}
			}
		}
		JOINT LeftShoulder
		{
			OFFSET 0.019635 0.377685 -0.194865 
			CHANNELS 3 Zrotation Xrotation Yrotation
			JOINT LeftElbow
			{
				OFFSET 0.000000 -0.243375 0.000000 
				CHANNELS 2 Zrotation Yrotation
				JOINT LeftWrist
				{
					OFFSET 0.000000 -0.264825 0.000000 
					CHANNELS 2 Zrotation Xrotation
					End Site
					{
						OFFSET 0.006600 -0.176220 -0.000990 
					}
				}
			}
		}
	}
	JOINT RightHip
	{
		OFFSET 0.052140 -0.069960 0.075570 
		CHANNELS 3 Zrotation Xrotation Yrotation
		JOINT RightKnee
		{
			OFFSET 0.000000 -0.402270 0.000000 
			CHANNELS 1 Zrotation
			JOINT RightAnkle
			{
				OFFSET 0.000000 -0.404085 0.000000 
				CHANNELS 3 Zrotation Xrotation Yrotation
				End Site
				{
					OFFSET 0.204105 -0.089430 0.008415 
				}
			}
		}
	}
	JOINT LeftHip
	{
		OFFSET 0.052140 -0.069960 -0.075570 
		CHANNELS 3 Zrotation Xrotation Yrotation
		JOINT LeftKnee
		{
			OFFSET 0.000000 -0.402270 0.000000 
			CHANNELS 1 Zrotation
			JOINT LeftAnkle
			{
				OFFSET 0.000000 -0.404085 0.000000 
				CHANNELS 3 Zrotation Xrotation Yrotation
				End Site
				{
					OFFSET 0.204105 -0.089430 -0.008415 
				}
			}
		}
	}
}
MOTION
Frames: 30
Frame Time: 0.02
-0.03635 -0.00875 -0.01384 30.02632 -30.32659 -9.99919 41.40098 1.13409 10.99093 -2.207 6.72649 -2.08389 49.07628 -43.93646 55.55071 22.86104 107.33075 11.28048 5.66632 18.04025 25.23195 -40.89213 93.51297 -101.00645 8.05297 -5.03818 46.27503 -4.50571 -13.64712 -22.23996 -7.83177 -3.80923 -4.15038 54.6685 10.04153 5.2799 -28.40634 -7.38121 0.76098 2.6561
-0.03729 -0.0087 -0.01502 30.06433 -30.35659 -9.99543 41.33787 1.0621 11.62671 -2.22653 7.13856 -2.08404 51.98583 -42.62446 55.69945 23.03571 103.77259 8.93351 5.35151 18.07904 24.96405 -41.12167 93.11519 -99.75313 7.21633 -4.899 46.33926 -4.5926 -13.4488 -22.29021 -7.85909 -3.82244 -4.15807 54.72048 9.91157 5.28888 -28.3809 -7.37977 0.75915 2.65502
-0.03824 -0.0086 -0.01624 29.81964 -30.33967 -9.92168 41.28184 1.00466 12.18006 -2.33344 7.52939 -2.08419 54.674 -40.9007 55.61144 24.52494 99.14421 6.94132 4.60644 17.87214 24.78005 -40.99782 92.82898 -98.04834 6.38044 -4.51331 46.43854 -4.70813 -13.22906 -22.36723 -7.86532 -3.81023 -4.1522 54.67863 9.78751 5.34351 -28.34995 -7.36572 0.78182 2.66511
-0.03918 -0.00853 -0.01744 29.69853 -30.3451 -9.87787 41.22281 0.93989 12.75119 -2.40492 7.92031 -2.08433 57.39542 -39.35293 55.61527 25.49767 95.1167 4.86585 4.05375 17.76472 24.5703 -41.00878 92.50535 -96.55944 5.56672 -4.23161 46.52269 -4.81256 -13.02647 -22.43112 -7.87982 -3.80837 -4.15184 54.68007 9.65962 5.37246 -28.32298 -7.3571 0.79403 2.67045
-0.04017 -0.00844 -0.01865 29.59252 -30.34585 -9.8397 41.16376 0.8785 13.40561 -2.46009 8.35412 -2.08449 60.43414 -37.83558 55.6909 26.14071 90.57994 2.41647 3.51715 17.70757 24.30746 -41.1282 92.11875 -95.01374 4.64185 -3.98652 46.60472 -4.90975 -12.78958 -22.49992 -7.89986 -3.81106 -4.154 54.6769 9.53496 5.42183 -28.28917 -7.34968 0.80412 2.67478
-0.04106 -0.00837 -0.01984 29.39126 -30.34563 -9.77442 41.10592 0.8133 13.86606 -2.56881 8.6914 -2.08463 62.73982 -36.17565 55.5628 27.78426 86.86221 0.85105 2.84751 17.48793 24.1762 -40.93835 91.89316 -93.48785 3.95597 -3.60823 46.69883 -5.02828 -12.62024 -22.56432 -7.90347 -3.79852 -4.14783 54.66216 9.40573 5.43992 -28.26871 -7.33685 0.82406 2.68367
-0.0417 -0.00837 -0.02098 28.98163 -30.35056 -9.64681 41.05171 0.73511 13.82103 -2.81012 8.78179 -2.08474 63.15975 -34.07431 54.87837 31.78649 85.63646 1.59603 1.86909 16.87859 24.37757 -39.97631 92.07588 -92.07702 3.91771 -2.88991 46.81981 -5.20117 -12.64154 -22.61263 -7.86568 -3.74912 -4.12133 54.63388 9.26089 5.35793 -28.28448 -7.31152 0.86653 2.70303
-0.04224 -0.00839 -0.02209 28.48948 -30.35688 -9.49561 40.99805 0.6524 13.58193 -3.10093 8.77283 -2.08483 62.8303 -31.87327 54.00453 36.75783 85.28073 3.23268 0.77901 16.11505 24.70969 -38.71663 92.41903 -90.71393 4.12525 -2.05139 46.95121 -5.39385 -12.73171 -22.65502 -7.81238 -3.6856 -4.08711 54.5984 9.11186 5.24374 -28.31435 -7.28133 0.91769 2.7264
-0.04282 -0.00841 -0.02321 28.04484 -30.36486 -9.35827 40.94261 0.57087 13.4252 -3.36493 8.79983 -2.08493 62.78505 -29.81369 53.25085 41.34326 84.55103 4.49508 -0.22997 15.42236 24.98942 -37.59559 92.69588 -89.36034 4.22912 -1.28828 47.0763 -5.57595 -12.79209 -22.69836 -7.76685 -3.62918 -4.05681 54.56922 8.96583 5.14552 -28.33911 -7.25375 0.96399 2.74752
-0.04343 -0.00841 -0.02433 27.54682 -30.36123 -9.20454 40.89357 0.49325 13.28998 -3.65039 8.86526 -2.08503 62.97042 -27.32762 52.34837 45.76569 83.69448 5.63682 -1.3807 14.71577 25.24506 -36.44574 92.94982 -87.85125 4.29491 -0.42852 47.20923 -5.76636 -12.84726 -22.75003 -7.7172 -3.56866 -4.02408 54.52336 8.81487 5.04179 -28.35809 -7.22394 1.01517 2.77096
-0.04396 -0.00845 -0.02546 27.14559 -30.38308 -9.08109 40.83161 0.40661 13.06519 -3.90155 8.82688 -2.08513 62.50033 -25.71925 51.70993 50.71437 83.32111 7.23907 -2.25871 14.0073 25.57748 -35.29263 93.28661 -86.69322 4.50331 0.25476 47.32793 -5.94305 -12.92748 -22.78253 -7.67315 -3.51409 -3.99501 54.51248 8.6737 4.94311 -28.39265 -7.19793 1.05768 2.79023
-0.04426 -0.00862 -0.02663 27.02029 -30.47196 -9.0405 40.73069 0.29268 12.63917 -4.04724 8.53023 -2.08523 60.40486 -26.4924 51.87929 57.08858 84.0929 9.87413 -2.34 13.31063 26.118 -34.18166 93.8257 -86.40772 5.0024 0.42439 47.40351 -6.08333 -13.0821 -22.76376 -7.64482 -3.47575 -3.97595 54.59419 8.55572 4.85034 -28.46559 -7.1822 1.0763 2.79826
-0.04448 -0.00884 -0.02782 26.99864 -30.58709 -9.03278 40.61727 0.17043 12.13063 -4.15594 8.13218 -2.08533 57.67839 -28.16402 52.31444 63.9072 85.32382 12.9405 -2.14346 12.62268 26.7254 -33.08399 94.43949 -86.48995 5.64304 0.41015 47.46434 -6.2079 -13.25616 -22.72568 -7.62341 -3.44463 -3.96125 54.7127 8.44862 4.76642 -28.55389 -7.17077 1.08537 2.80167
-0.04474 -0.00904 -0.02901 26.93879 -30.69259 -9.0146 40.51164 0.0542 11.6609 -4.28035 7.77753 -2.08543 55.23851 -29.47358 52.60988 70.38591 86.33197 15.8258 -2.08314 11.94538 27.28358 -31.99567 95.01042 -86.46469 6.24904 0.47725 47.53275 -6.33527 -13.40623 -22.69618 -7.60129 -3.41278 -3.94597 54.81889 8.3397 4.68874 -28.63605 -7.15835 1.09724 2.8063
-0.04496 -0.00924 -0.03017 26.83909 -30.789 -8.97656 40.39728 -0.07169 11.17785 -4.41149 7.42937 -2.08553 52.76492 -30.59559 52.98494 77.50623 87.4216 18.69393 -1.98659 11.20017 27.92668 -30.82986 95.6255 -86.19783 6.7446 0.55938 47.59837 -6.48127 -13.62022 -22.66741 -7.56846 -3.36987 -3.92465 54.90703 8.21746 4.56694 -28.71546 -7.14171 1.1159 2.81474
-0.04527 -0.00946 -0.0314 26.84712 -30.90981 -8.98811 40.29796 -0.17933 10.70668 -4.51883 7.04662 -2.08563 50.23172 -32.30854 53.2516 83.35209 88.44909 21.67027 -1.89594 10.60138 28.40605 -29.83491 96.16315 -86.50995 7.49265 0.5633 47.6655 -6.58496 -13.70785 -22.63249 -7.55963 -3.35162 -3.91686 55.04055 8.12558 4.53918 -28.80369 -7.13492 1.11805 2.81416
-0.04581 -0.00973 -0.03286 27.1362 -31.09785 -9.12795 40.24472 -0.23473 10.28049 -4.57161 6.57944 -2.08573 47.61213 -35.55695 53.232 85.82245 89.10753 24.98935 -1.90536 10.39943 28.42491 -29.29146 96.47661 -88.42704 8.9695 0.40964 47.74599 -6.57126 -13.41478 -22.58653 -7.61685 -3.40215 -3.94684 55.29936 8.11485 4.77158 -28.91559 -7.15436 1.07685 2.78918
-0.04645 -0.01001 -0.0344 27.52858 -31.30829 -9.31671 40.20673 -0.2714 9.87229 -4.60073 6.08438 -2.08583 44.97778 -39.34524 53.08535 86.94051 89.69944 28.36793 -1.92622 10.34684 28.27465 -28.92508 96.70689 -90.89643 10.68117 0.18069 47.82747 -6.5162 -12.99821 -22.53491 -7.69779 -3.47685 -3.99005 55.60081 8.13414 5.09735 -29.03514 -7.1835 1.01945 2.75543
-0.04705 -0.01029 -0.03592 27.86865 -31.50449 -9.4837 40.16086 -0.31653 9.46119 -4.6395 5.61112 -2.08593 42.39703 -42.80758 52.94046 88.50988 90.37309 31.61939 -1.9315 10.22954 28.19579 -28.48924 96.96971 -93.04912 12.24169 -0.02346 47.90471 -6.48289 -12.65601 -22.48501 -7.76702 -3.53895 -4.02626 55.87707 8.13991 5.37963 -29.14912 -7.20823 0.96936 2.72603
-0.04761 -0.01058 -0.03739 28.23626 -31.71912 -9.65026 40.11877 -0.36224 9.02191 -4.68309 5.09418 -2.08604 39.5735 -46.64688 53.02122 90.79359 90.845 35.3176 -1.97312 10.09702 28.1419 -28.00365 97.25899 -95.49016 13.99818 -0.195 47.99723 -6.43668 -12.23897 -22.43773 -7.84045 -3.60814 -4.06676 56.17971 8.14621 5.6693 -29.27261 -7.23337 0.91874 2.69477
-0.04828 -0.01085 -0.03897 28.56804 -31.89986 -9.82841 40.07235 -0.40208 8.65033 -4.70973 4.66483 -2.08614 37.28846 -49.81074 52.62327 91.2511 91.71629 38.0829 -1.94268 10.03415 27.99557 -27.66801 97.47046 -97.45935 15.39625 -0.44894 48.05861 -6.40759 -11.9464 -22.38427 -7.91064 -3.66819 -4.10142 56.43634 8.15755 5.96235 -29.37777 -7.25958 0.86604 2.66558
-0.0492 -0.01104 -0.04081 28.78912 -31.98566 -10.03071 40.01248 -0.43133 8.43073 -4.71092 4.46887 -2.08622 36.2537 -51.03134 50.71499 87.09654 93.68575 38.34556 -1.73555 10.10463 27.62977 -27.66541 97.50399 -97.96619 15.78128 -0.9194 48.03169 -6.4372 -12.04343 -22.3124 -7.96615 -3.69728 -4.11668 56.56122 8.1827 6.27043 -29.43141 -7.28923 0.80676 2.64227
-0.05022 -0.01119 -0.04275 28.96742 -32.03567 -10.24199 39.94749 -0.4551 8.28457 -4.69345 4.36546 -2.0863 35.80573 -51.5392 48.36558 81.13645 96.05486 37.64877 -1.45288 10.24365 27.17779 -27.81415 97.45901 -97.98046 15.79048 -1.46733 47.97393 -6.48539 -12.26712 -22.23528 -8.01748 -3.71623 -4.12558 56.63694 8.21052 6.57357 -29.46598 -7.31907 0.74686 2.62174
-0.05119 -0.01136 -0.04465 29.15611 -32.09927 -10.44638 39.88326 -0.48066 8.1255 -4.67412 4.23017 -2.08638 35.25474 -52.33321 46.36516 75.92669 98.26002 37.33106 -1.18887 10.36668 26.76817 -27.91887 97.43813 -98.23602 15.94852 -1.97476 47.93165 -6.52421 -12.42223 -22.16226 -8.07067 -3.73971 -4.13744 56.73133 8.23223 6.85984 -29.50869 -7.34693 0.69044 2.60127
-0.05217 -0.01153 -0.04653 29.3872 -32.17505 -10.66464 39.82566 -0.5085 7.88142 -4.69636 4.05064 -2.08645 34.02742 -53.30513 43.7476 70.93909 100.4135 37.25544 -0.98846 10.43325 26.33788 -27.92714 97.4615 -98.44294 16.20717 -2.50963 47.88292 -6.56516 -12.61892 -22.08111 -8.12499 -3.76449 -4.14956 56.84317 8.27547 7.22896 -29.55434 -7.38312 0.61998 2.57492
-0.05316 -0.0117 -0.04848 29.51779 -32.21655 -10.85517 39.75347 -0.53055 7.83061 -4.62944 3.98589 -2.08653 34.32895 -53.73126 42.29457 65.11186 102.73908 36.44778 -0.64103 10.62883 25.93403 -28.1676 97.37736 -98.62007 16.1644 -3.00179 47.84067 -6.60705 -12.76148 -22.01657 -8.17548 -3.78368 -4.15936 56.90591 8.27435 7.42456 -29.58871 -7.40192 0.5788 2.56155
-0.05417 -0.01186 -0.05057 29.38627 -32.17282 -10.96952 39.63669 -0.53798 8.30407 -4.30801 4.21329 -2.08666 38.87663 -52.80939 44.31932 57.12178 105.71232 33.84677 0.12307 11.18792 25.61117 -29.03077 96.99681 -98.89351 15.37662 -3.38217 47.82078 -6.64352 -12.71745 -21.99238 -8.21781 -3.79125 -4.16508 56.84921 8.1479 7.12981 -29.60092 -7.37235 0.61882 2.58372
-0.05519 -0.01201 -0.05272 29.15361 -32.09548 -11.05492 39.50626 -0.53989 8.9676 -3.90013 4.55345 -2.08679 44.91023 -51.36262 47.50379 48.41158 108.79686 30.54527 1.02673 11.86904 25.32144 -30.11743 96.51484 -99.14197 14.29896 -3.71214 47.80906 -6.68115 -12.61644 -21.98656 -8.25601 -3.79315 -4.16847 56.74375 7.97712 6.66288 -29.60166 -7.32531 0.68832 2.61882
-0.0562 -0.01215 -0.05483 28.96354 -32.03304 -11.15166 39.3858 -0.54439 9.53866 -3.54029 4.84368 -2.08692 50.15502 -50.16367 50.0559 40.22243 111.65093 27.56566 1.84785 12.47806 25.02566 -31.08949 96.09176 -99.35886 13.35476 -4.0479 47.79558 -6.72071 -12.546 -21.97659 -8.29507 -3.79671 -4.17238 56.65776 7.82769 6.28187 -29.60471 -7.28642 0.74433 2.64784
-0.05724 -0.01233 -0.05697 28.78644 -31.97127 -11.25646 39.24973 -0.54827 10.13887 -3.14247 5.13199 -2.08705 55.90454 -48.90209 53.0342 31.1415 115.26994 24.52848 2.75381 13.16066 24.68766 -32.12446 95.61111 -99.73332 12.38689 -4.45731 47.7727 -6.75048 -12.45972 -21.94802 -8.3384 -3.80393 -4.17845 56.58165 7.67262 5.86657 -29.61912 -7.2466 0.80093 2.6779
